<?xml version="1.0" encoding="UTF-8"?>
<svg id="Layer_1" data-name="Layer 1" xmlns="http://www.w3.org/2000/svg" viewBox="0 0 144 144">
  <defs>
    <style>
      .cls-1 {
        fill: #fff;
      }

      .cls-2 {
        fill: #11488d;
      }
    </style>
  </defs>
  <g>
    <path class="cls-1" d="M38.79,3h66.42c9.01,0,16.32,7.31,16.32,16.32v105.35c0,9.01-7.31,16.32-16.32,16.32H38.79c-9.01,0-16.32-7.31-16.32-16.32V19.32c0-9.01,7.31-16.32,16.32-16.32Z"/>
    <path class="cls-2" d="M105.21,5c7.9,0,14.32,6.43,14.32,14.32v105.35c0,7.9-6.43,14.32-14.32,14.32H38.79c-7.9,0-14.32-6.43-14.32-14.32V19.32c0-7.9,6.43-14.32,14.32-14.32h66.42M105.21,1H38.79c-10.12,0-18.32,8.2-18.32,18.32v105.35c0,10.12,8.2,18.32,18.32,18.32h66.42c10.12,0,18.32-8.2,18.32-18.32V19.32c0-10.12-8.2-18.32-18.32-18.32h0Z"/>
  </g>
  <path class="cls-2" d="M71.86,105.5c6.96,0,11.98-4.18,11.98-10.17,0-9.05-15.18-12.4-26.74-19.08-8.22-4.6-16.02-13.51-16.02-26.04,0-17.13,13.93-29.81,30.78-29.81s31.06,13.93,31.06,31.06h-17.97c-.42-7.1-5.99-12.95-13.09-12.95s-11.84,3.48-11.84,10.45c0,7.8,12.95,11.84,23.68,17.55,9.33,5.15,19.22,13.51,19.22,27.58,0,16.85-13.93,29.53-31.06,29.53s-30.78-13.93-30.78-30.92h17.97c.28,6.96,5.85,12.81,12.81,12.81Z"/>
</svg>