<svg xmlns="http://www.w3.org/2000/svg" viewBox="0 0 720 148.54"><g id="Layer_2" data-name="Layer 2"><g id="Layer_1-2" data-name="Layer 1"><path class="cls-1" d="M24.27,100.73c5.49,0,9.44-3.29,9.44-8,0-7.14-12-9.77-21.08-15C6.15,74.05,0,67,0,57.14c0-13.5,11-23.49,24.27-23.49A24.51,24.51,0,0,1,48.75,58.13H34.59A10.58,10.58,0,0,0,24.27,47.92c-5.6,0-9.34,2.74-9.34,8.23,0,6.15,10.21,9.34,18.67,13.84C41,74.05,48.75,80.64,48.75,91.73c0,13.29-11,23.28-24.48,23.28A24.44,24.44,0,0,1,0,90.63H14.16A10.37,10.37,0,0,0,24.27,100.73Z"/><path class="cls-1" d="M73.73,67.24h27.45V81.41H73.73v19.32h27.45V115H59.57V33.65h41.61V47.92H73.73Z"/><path class="cls-1" d="M278.54,100.73c5.49,0,9.44-3.29,9.44-8,0-7.14-12-9.77-21.08-15-6.48-3.62-12.63-10.65-12.63-20.53,0-13.5,11-23.49,24.27-23.49A24.51,24.51,0,0,1,303,58.13H288.86a10.58,10.58,0,0,0-10.32-10.21c-5.6,0-9.34,2.74-9.34,8.23,0,6.15,10.22,9.34,18.67,13.84C295.23,74.05,303,80.64,303,91.73,303,105,292,115,278.54,115a24.44,24.44,0,0,1-24.27-24.38h14.17A10.36,10.36,0,0,0,278.54,100.73Z"/><path class="cls-1" d="M328,67.24h27.45V81.41H328v19.32h27.45V115H313.84V33.65h41.61V47.92H328Z"/><path class="cls-1" d="M147.55,57.69a10.16,10.16,0,1,0-20.31,0V91.18c.11,6.48,4.72,10.1,10.1,10.1a10.39,10.39,0,0,0,10.21-10.1V83h14.28v8.23a24.38,24.38,0,0,1-48.75,0V57.69a24.38,24.38,0,1,1,48.75,0v8H147.55Z"/><path class="cls-1" d="M187.08,94.69,182.14,115H167.86l19.88-81.36h19.32L226.93,115H212.66l-4.94-20.32ZM197.4,52.53l-7,29h14.16Z"/><path class="cls-1" d="M382.87,85.47V115H368.6V33.65h24.27a24.53,24.53,0,0,1,24.59,24.48v3.08A24.15,24.15,0,0,1,404,82.84L418,115H401.65l-13-29.54Zm0-14.16h10c5.59-.11,10.32-4.72,10.32-10.1V58.13a10.36,10.36,0,0,0-10.32-10.21h-10Z"/><path class="cls-1" d="M459.18,115H439.85L424.59,33.65h14.28l10.65,56.76,10.65-56.76h14.27Z"/><path class="cls-1" d="M486.4,33.65h14.28V115H486.4Z"/><path class="cls-1" d="M549.14,57.69a10.16,10.16,0,1,0-20.31,0V91.18c.11,6.48,4.72,10.1,10.1,10.1a10.39,10.39,0,0,0,10.21-10.1V83h14.27v8.23a24.38,24.38,0,0,1-48.75,0V57.69a24.38,24.38,0,1,1,48.75,0v8H549.14Z"/><path class="cls-1" d="M589.65,67.24H617.1V81.41H589.65v19.32H617.1V115H575.49V33.65H617.1V47.92H589.65Z"/><path class="cls-1" d="M651.24,100.73c5.49,0,9.45-3.29,9.45-8,0-7.14-12-9.77-21.09-15C633.13,74.05,627,67,627,57.14c0-13.5,11-23.49,24.26-23.49a24.51,24.51,0,0,1,24.49,24.48H661.56a10.58,10.58,0,0,0-10.32-10.21c-5.6,0-9.33,2.74-9.33,8.23,0,6.15,10.21,9.34,18.67,13.84,7.35,4.06,15.15,10.65,15.15,21.74,0,13.29-11,23.28-24.49,23.28A24.44,24.44,0,0,1,627,90.63h14.16A10.36,10.36,0,0,0,651.24,100.73Z"/><path class="cls-1" d="M718.9,57.17H706.83V33.65H711V53h7.94Z"/><path class="cls-1" d="M718.9,86.21H706.83V62.68H711v19.4h7.94Z"/><path class="cls-1" d="M715.78,98.75a2.94,2.94,0,1,0-5.87,0v9.68a2.82,2.82,0,0,0,2.92,2.92,3,3,0,0,0,2.95-2.92v-2.38h4.13v2.38a7,7,0,0,1-14.09,0V98.75a7,7,0,1,1,14.09,0v2.32h-4.13Z"/><rect class="cls-1" width="720" height="4.16"/><rect class="cls-1" y="144.38" width="720" height="4.16"/></g></g></svg>